<mxfile host="app.diagrams.net" agent="Mozilla/5.0 (Windows NT 10.0; Win64; x64) AppleWebKit/537.36 (KHTML, like Gecko) Chrome/128.0.0.0 Safari/537.36 OPR/114.0.0.0 (Edition Yx 05)" version="24.8.0">
  <diagram name="Страница — 1" id="j0yC1JH_k7iiigc8OrBs">
    <mxGraphModel dx="2207" dy="747" grid="1" gridSize="10" guides="1" tooltips="1" connect="1" arrows="1" fold="1" page="1" pageScale="1" pageWidth="827" pageHeight="1169" math="0" shadow="0">
      <root>
        <mxCell id="0" />
        <mxCell id="1" parent="0" />
        <mxCell id="4O6BUCsburUfHNw8age4-221" style="edgeStyle=orthogonalEdgeStyle;rounded=0;orthogonalLoop=1;jettySize=auto;html=1;" parent="1" source="4O6BUCsburUfHNw8age4-1" edge="1">
          <mxGeometry relative="1" as="geometry">
            <mxPoint x="320" y="195" as="targetPoint" />
          </mxGeometry>
        </mxCell>
        <mxCell id="4O6BUCsburUfHNw8age4-1" value="" style="rounded=0;whiteSpace=wrap;html=1;" parent="1" vertex="1">
          <mxGeometry x="40" y="30" width="230" height="330" as="geometry" />
        </mxCell>
        <mxCell id="4O6BUCsburUfHNw8age4-2" value="" style="rounded=1;whiteSpace=wrap;html=1;" parent="1" vertex="1">
          <mxGeometry x="60" y="50" width="170" height="30" as="geometry" />
        </mxCell>
        <mxCell id="4O6BUCsburUfHNw8age4-3" value="Поиск" style="text;html=1;align=center;verticalAlign=middle;whiteSpace=wrap;rounded=0;" parent="1" vertex="1">
          <mxGeometry x="115" y="50" width="60" height="30" as="geometry" />
        </mxCell>
        <mxCell id="4O6BUCsburUfHNw8age4-6" value="" style="rounded=1;whiteSpace=wrap;html=1;" parent="1" vertex="1">
          <mxGeometry x="55" y="100" width="95" height="80" as="geometry" />
        </mxCell>
        <mxCell id="4O6BUCsburUfHNw8age4-7" value="" style="rounded=0;whiteSpace=wrap;html=1;" parent="1" vertex="1">
          <mxGeometry x="55" y="180" width="95" height="20" as="geometry" />
        </mxCell>
        <mxCell id="4O6BUCsburUfHNw8age4-8" value="Товар1&amp;nbsp;" style="text;html=1;align=center;verticalAlign=middle;whiteSpace=wrap;rounded=0;" parent="1" vertex="1">
          <mxGeometry x="72.5" y="175" width="60" height="30" as="geometry" />
        </mxCell>
        <mxCell id="4O6BUCsburUfHNw8age4-9" value="" style="rounded=1;whiteSpace=wrap;html=1;" parent="1" vertex="1">
          <mxGeometry x="160" y="100" width="95" height="80" as="geometry" />
        </mxCell>
        <mxCell id="4O6BUCsburUfHNw8age4-11" value="Товар 2" style="rounded=0;whiteSpace=wrap;html=1;" parent="1" vertex="1">
          <mxGeometry x="160" y="180" width="95" height="20" as="geometry" />
        </mxCell>
        <mxCell id="4O6BUCsburUfHNw8age4-12" value="Товар 3" style="rounded=0;whiteSpace=wrap;html=1;" parent="1" vertex="1">
          <mxGeometry x="55" y="295" width="95" height="25" as="geometry" />
        </mxCell>
        <mxCell id="4O6BUCsburUfHNw8age4-13" value="Товар 4" style="rounded=0;whiteSpace=wrap;html=1;" parent="1" vertex="1">
          <mxGeometry x="160" y="295" width="100" height="25" as="geometry" />
        </mxCell>
        <mxCell id="4O6BUCsburUfHNw8age4-14" value="" style="rounded=1;whiteSpace=wrap;html=1;" parent="1" vertex="1">
          <mxGeometry x="55" y="215" width="95" height="80" as="geometry" />
        </mxCell>
        <mxCell id="4O6BUCsburUfHNw8age4-15" style="edgeStyle=orthogonalEdgeStyle;rounded=0;orthogonalLoop=1;jettySize=auto;html=1;exitX=0.5;exitY=1;exitDx=0;exitDy=0;" parent="1" source="4O6BUCsburUfHNw8age4-11" target="4O6BUCsburUfHNw8age4-11" edge="1">
          <mxGeometry relative="1" as="geometry" />
        </mxCell>
        <mxCell id="4O6BUCsburUfHNw8age4-16" value="" style="rounded=1;whiteSpace=wrap;html=1;" parent="1" vertex="1">
          <mxGeometry x="160" y="215" width="95" height="80" as="geometry" />
        </mxCell>
        <mxCell id="4O6BUCsburUfHNw8age4-18" value="" style="verticalLabelPosition=bottom;verticalAlign=top;html=1;shape=mxgraph.basic.heart" parent="1" vertex="1">
          <mxGeometry x="235" y="297.5" width="20" height="20" as="geometry" />
        </mxCell>
        <mxCell id="4O6BUCsburUfHNw8age4-21" value="" style="verticalLabelPosition=bottom;verticalAlign=top;html=1;shape=mxgraph.basic.heart" parent="1" vertex="1">
          <mxGeometry x="125" y="297.5" width="20" height="20" as="geometry" />
        </mxCell>
        <mxCell id="4O6BUCsburUfHNw8age4-22" value="" style="sketch=0;pointerEvents=1;shadow=0;dashed=0;html=1;strokeColor=none;fillColor=#505050;labelPosition=center;verticalLabelPosition=bottom;verticalAlign=top;outlineConnect=0;align=center;shape=mxgraph.office.devices.hard_disk;" parent="1" vertex="1">
          <mxGeometry x="85" y="113" width="40" height="54" as="geometry" />
        </mxCell>
        <mxCell id="4O6BUCsburUfHNw8age4-23" value="" style="shadow=0;dashed=0;html=1;labelPosition=center;verticalLabelPosition=bottom;verticalAlign=top;align=center;outlineConnect=0;shape=mxgraph.veeam.3d.hard_drive;fillColor=#637D8A;gradientColor=#324752;strokeColor=none;" parent="1" vertex="1">
          <mxGeometry x="175" y="126" width="62" height="28" as="geometry" />
        </mxCell>
        <mxCell id="4O6BUCsburUfHNw8age4-24" value="" style="verticalLabelPosition=bottom;html=1;verticalAlign=top;align=center;strokeColor=none;fillColor=#00BEF2;shape=mxgraph.azure.vhd;pointerEvents=1;" parent="1" vertex="1">
          <mxGeometry x="80" y="230" width="40" height="50" as="geometry" />
        </mxCell>
        <mxCell id="4O6BUCsburUfHNw8age4-25" value="" style="shadow=0;dashed=0;html=1;strokeColor=none;fillColor=#4495D1;labelPosition=center;verticalLabelPosition=bottom;verticalAlign=top;align=center;outlineConnect=0;shape=mxgraph.veeam.2d.hard_drive;" parent="1" vertex="1">
          <mxGeometry x="186" y="231" width="40" height="48" as="geometry" />
        </mxCell>
        <mxCell id="4O6BUCsburUfHNw8age4-29" value="" style="rounded=1;whiteSpace=wrap;html=1;" parent="1" vertex="1">
          <mxGeometry x="40" y="330" width="230" height="27.5" as="geometry" />
        </mxCell>
        <mxCell id="4O6BUCsburUfHNw8age4-31" value="" style="image;aspect=fixed;html=1;points=[];align=center;fontSize=12;image=img/lib/azure2/general/Heart.svg;" parent="1" vertex="1">
          <mxGeometry x="111.17" y="333.75" width="21.33" height="20" as="geometry" />
        </mxCell>
        <mxCell id="4O6BUCsburUfHNw8age4-32" value="" style="verticalLabelPosition=bottom;verticalAlign=top;html=1;shadow=0;dashed=0;strokeWidth=1;shape=mxgraph.ios.iSortFindIcon;fillColor=#8BbEff;fillColor2=#135Ec8;strokeColor=#ffffff;sketch=0;" parent="1" vertex="1">
          <mxGeometry x="55" y="336.25" width="15" height="15" as="geometry" />
        </mxCell>
        <mxCell id="4O6BUCsburUfHNw8age4-33" value="" style="image;aspect=fixed;html=1;points=[];align=center;fontSize=12;image=img/lib/azure2/identity/PIM.svg;" parent="1" vertex="1">
          <mxGeometry x="237.06" y="333.25" width="15.88" height="18" as="geometry" />
        </mxCell>
        <mxCell id="4O6BUCsburUfHNw8age4-34" value="" style="shape=message;html=1;html=1;outlineConnect=0;labelPosition=center;verticalLabelPosition=bottom;align=center;verticalAlign=top;" parent="1" vertex="1">
          <mxGeometry x="175" y="335.75" width="30" height="18" as="geometry" />
        </mxCell>
        <mxCell id="4O6BUCsburUfHNw8age4-36" value="" style="whiteSpace=wrap;html=1;rounded=0;" parent="1" vertex="1">
          <mxGeometry x="322.5" y="30" width="227.5" height="330" as="geometry" />
        </mxCell>
        <mxCell id="4O6BUCsburUfHNw8age4-38" value="" style="rounded=1;whiteSpace=wrap;html=1;" parent="1" vertex="1">
          <mxGeometry x="340" y="50" width="170" height="30" as="geometry" />
        </mxCell>
        <mxCell id="4O6BUCsburUfHNw8age4-39" value="Поиск" style="text;html=1;align=center;verticalAlign=middle;whiteSpace=wrap;rounded=0;" parent="1" vertex="1">
          <mxGeometry x="395" y="50" width="60" height="30" as="geometry" />
        </mxCell>
        <mxCell id="4O6BUCsburUfHNw8age4-40" value="" style="rounded=1;whiteSpace=wrap;html=1;" parent="1" vertex="1">
          <mxGeometry x="340" y="95" width="95" height="80" as="geometry" />
        </mxCell>
        <mxCell id="4O6BUCsburUfHNw8age4-41" value="" style="rounded=1;whiteSpace=wrap;html=1;" parent="1" vertex="1">
          <mxGeometry x="450" y="95" width="95" height="80" as="geometry" />
        </mxCell>
        <mxCell id="4O6BUCsburUfHNw8age4-42" value="Товар 2" style="rounded=0;whiteSpace=wrap;html=1;" parent="1" vertex="1">
          <mxGeometry x="450" y="177.5" width="95" height="20" as="geometry" />
        </mxCell>
        <mxCell id="4O6BUCsburUfHNw8age4-43" value="Товар 1" style="rounded=0;whiteSpace=wrap;html=1;" parent="1" vertex="1">
          <mxGeometry x="340" y="177.5" width="95" height="20" as="geometry" />
        </mxCell>
        <mxCell id="4O6BUCsburUfHNw8age4-44" value="" style="sketch=0;pointerEvents=1;shadow=0;dashed=0;html=1;strokeColor=none;fillColor=#505050;labelPosition=center;verticalLabelPosition=bottom;verticalAlign=top;outlineConnect=0;align=center;shape=mxgraph.office.devices.hard_disk;" parent="1" vertex="1">
          <mxGeometry x="367.5" y="108" width="40" height="54" as="geometry" />
        </mxCell>
        <mxCell id="4O6BUCsburUfHNw8age4-45" value="" style="shadow=0;dashed=0;html=1;labelPosition=center;verticalLabelPosition=bottom;verticalAlign=top;align=center;outlineConnect=0;shape=mxgraph.veeam.3d.hard_drive;fillColor=#637D8A;gradientColor=#324752;strokeColor=none;" parent="1" vertex="1">
          <mxGeometry x="466.5" y="121" width="62" height="28" as="geometry" />
        </mxCell>
        <mxCell id="4O6BUCsburUfHNw8age4-53" value="" style="edgeStyle=orthogonalEdgeStyle;rounded=0;orthogonalLoop=1;jettySize=auto;html=1;" parent="1" source="4O6BUCsburUfHNw8age4-46" target="4O6BUCsburUfHNw8age4-52" edge="1">
          <mxGeometry relative="1" as="geometry" />
        </mxCell>
        <mxCell id="4O6BUCsburUfHNw8age4-46" value="" style="verticalLabelPosition=bottom;verticalAlign=top;html=1;shape=mxgraph.basic.rect;fillColor2=none;strokeWidth=1;size=20;indent=5;" parent="1" vertex="1">
          <mxGeometry x="340" y="215" width="200" height="85" as="geometry" />
        </mxCell>
        <mxCell id="4O6BUCsburUfHNw8age4-47" value="" style="verticalLabelPosition=bottom;verticalAlign=top;html=1;shape=mxgraph.basic.rect;fillColor2=none;strokeWidth=1;size=20;indent=5;" parent="1" vertex="1">
          <mxGeometry x="351.5" y="260" width="103.5" height="25" as="geometry" />
        </mxCell>
        <mxCell id="4O6BUCsburUfHNw8age4-48" value="Добавить" style="text;html=1;align=center;verticalAlign=middle;whiteSpace=wrap;rounded=0;" parent="1" vertex="1">
          <mxGeometry x="373.25" y="257.5" width="60" height="30" as="geometry" />
        </mxCell>
        <mxCell id="4O6BUCsburUfHNw8age4-49" value="2 объявления можно добавить в подборку" style="text;html=1;align=center;verticalAlign=middle;whiteSpace=wrap;rounded=0;" parent="1" vertex="1">
          <mxGeometry x="367.5" y="220" width="152.5" height="30" as="geometry" />
        </mxCell>
        <mxCell id="4O6BUCsburUfHNw8age4-52" value="" style="verticalLabelPosition=bottom;verticalAlign=top;html=1;shape=mxgraph.basic.rect;fillColor2=none;strokeWidth=1;size=20;indent=5;" parent="1" vertex="1">
          <mxGeometry x="600" y="30" width="240" height="330" as="geometry" />
        </mxCell>
        <mxCell id="4O6BUCsburUfHNw8age4-54" value="" style="rounded=0;whiteSpace=wrap;html=1;" parent="1" vertex="1">
          <mxGeometry x="610" y="137.5" width="220" height="180" as="geometry" />
        </mxCell>
        <mxCell id="4O6BUCsburUfHNw8age4-55" value="" style="rounded=1;whiteSpace=wrap;html=1;" parent="1" vertex="1">
          <mxGeometry x="620" y="50" width="170" height="30" as="geometry" />
        </mxCell>
        <mxCell id="4O6BUCsburUfHNw8age4-56" value="Поиск" style="text;html=1;align=center;verticalAlign=middle;whiteSpace=wrap;rounded=0;" parent="1" vertex="1">
          <mxGeometry x="670" y="50" width="60" height="30" as="geometry" />
        </mxCell>
        <mxCell id="4O6BUCsburUfHNw8age4-57" value="&lt;b&gt;&lt;font style=&quot;font-size: 14px;&quot;&gt;Создать новую подборку&lt;/font&gt;&lt;/b&gt;" style="text;html=1;align=center;verticalAlign=middle;whiteSpace=wrap;rounded=0;" parent="1" vertex="1">
          <mxGeometry x="625" y="145" width="190" height="30" as="geometry" />
        </mxCell>
        <mxCell id="4O6BUCsburUfHNw8age4-58" value="Объявления добавятся в нее, а также останутся в избранных" style="text;html=1;align=center;verticalAlign=middle;whiteSpace=wrap;rounded=0;" parent="1" vertex="1">
          <mxGeometry x="630" y="170" width="180" height="30" as="geometry" />
        </mxCell>
        <mxCell id="4O6BUCsburUfHNw8age4-59" value="название подборки" style="rounded=0;whiteSpace=wrap;html=1;" parent="1" vertex="1">
          <mxGeometry x="630" y="225" width="180" height="25" as="geometry" />
        </mxCell>
        <mxCell id="4O6BUCsburUfHNw8age4-77" value="" style="edgeStyle=orthogonalEdgeStyle;rounded=0;orthogonalLoop=1;jettySize=auto;html=1;entryX=0;entryY=0.5;entryDx=0;entryDy=0;exitX=1;exitY=0.5;exitDx=0;exitDy=0;" parent="1" source="4O6BUCsburUfHNw8age4-60" target="4O6BUCsburUfHNw8age4-78" edge="1">
          <mxGeometry relative="1" as="geometry">
            <mxPoint x="730" y="286.29999999999995" as="sourcePoint" />
            <mxPoint x="905" y="195" as="targetPoint" />
          </mxGeometry>
        </mxCell>
        <mxCell id="4O6BUCsburUfHNw8age4-60" value="Создать" style="rounded=1;whiteSpace=wrap;html=1;" parent="1" vertex="1">
          <mxGeometry x="625" y="272.5" width="120" height="27.5" as="geometry" />
        </mxCell>
        <mxCell id="4O6BUCsburUfHNw8age4-61" value="" style="rounded=1;whiteSpace=wrap;html=1;" parent="1" vertex="1">
          <mxGeometry x="322.5" y="330" width="230" height="27.5" as="geometry" />
        </mxCell>
        <mxCell id="4O6BUCsburUfHNw8age4-62" value="" style="verticalLabelPosition=bottom;verticalAlign=top;html=1;shadow=0;dashed=0;strokeWidth=1;shape=mxgraph.ios.iSortFindIcon;fillColor=#8BbEff;fillColor2=#135Ec8;strokeColor=#ffffff;sketch=0;" parent="1" vertex="1">
          <mxGeometry x="340" y="334.75" width="15" height="15" as="geometry" />
        </mxCell>
        <mxCell id="4O6BUCsburUfHNw8age4-63" value="" style="image;aspect=fixed;html=1;points=[];align=center;fontSize=12;image=img/lib/azure2/general/Heart.svg;" parent="1" vertex="1">
          <mxGeometry x="386.17" y="332.25" width="21.33" height="20" as="geometry" />
        </mxCell>
        <mxCell id="4O6BUCsburUfHNw8age4-64" value="" style="shape=message;html=1;html=1;outlineConnect=0;labelPosition=center;verticalLabelPosition=bottom;align=center;verticalAlign=top;" parent="1" vertex="1">
          <mxGeometry x="455" y="334.75" width="30" height="18" as="geometry" />
        </mxCell>
        <mxCell id="4O6BUCsburUfHNw8age4-65" value="" style="image;aspect=fixed;html=1;points=[];align=center;fontSize=12;image=img/lib/azure2/identity/PIM.svg;" parent="1" vertex="1">
          <mxGeometry x="528.5" y="334.75" width="15.88" height="18" as="geometry" />
        </mxCell>
        <mxCell id="4O6BUCsburUfHNw8age4-78" value="" style="rounded=0;whiteSpace=wrap;html=1;" parent="1" vertex="1">
          <mxGeometry x="930" y="31.25" width="230" height="330" as="geometry" />
        </mxCell>
        <mxCell id="4O6BUCsburUfHNw8age4-79" value="Объяавления" style="rounded=0;whiteSpace=wrap;html=1;" parent="1" vertex="1">
          <mxGeometry x="930" y="95" width="90" height="25" as="geometry" />
        </mxCell>
        <mxCell id="4O6BUCsburUfHNw8age4-80" value="Избранное" style="rounded=1;whiteSpace=wrap;html=1;" parent="1" vertex="1">
          <mxGeometry x="945" y="40" width="120" height="40" as="geometry" />
        </mxCell>
        <mxCell id="4O6BUCsburUfHNw8age4-81" value="&lt;b&gt;&lt;font style=&quot;font-size: 17px;&quot;&gt;Подборки&lt;/font&gt;&lt;/b&gt;" style="rounded=0;whiteSpace=wrap;html=1;" parent="1" vertex="1">
          <mxGeometry x="1040" y="95" width="90" height="25" as="geometry" />
        </mxCell>
        <mxCell id="4O6BUCsburUfHNw8age4-88" value="" style="rounded=1;whiteSpace=wrap;html=1;" parent="1" vertex="1">
          <mxGeometry x="930" y="333.75" width="230" height="27.5" as="geometry" />
        </mxCell>
        <mxCell id="4O6BUCsburUfHNw8age4-89" value="" style="verticalLabelPosition=bottom;verticalAlign=top;html=1;shadow=0;dashed=0;strokeWidth=1;shape=mxgraph.ios.iSortFindIcon;fillColor=#8BbEff;fillColor2=#135Ec8;strokeColor=#ffffff;sketch=0;" parent="1" vertex="1">
          <mxGeometry x="945" y="340" width="15" height="15" as="geometry" />
        </mxCell>
        <mxCell id="4O6BUCsburUfHNw8age4-90" value="" style="image;aspect=fixed;html=1;points=[];align=center;fontSize=12;image=img/lib/azure2/general/Heart.svg;" parent="1" vertex="1">
          <mxGeometry x="1000.0000000000001" y="337.5" width="21.33" height="20" as="geometry" />
        </mxCell>
        <mxCell id="4O6BUCsburUfHNw8age4-91" value="" style="shape=message;html=1;html=1;outlineConnect=0;labelPosition=center;verticalLabelPosition=bottom;align=center;verticalAlign=top;" parent="1" vertex="1">
          <mxGeometry x="1070" y="340" width="30" height="18" as="geometry" />
        </mxCell>
        <mxCell id="4O6BUCsburUfHNw8age4-92" value="" style="image;aspect=fixed;html=1;points=[];align=center;fontSize=12;image=img/lib/azure2/identity/PIM.svg;" parent="1" vertex="1">
          <mxGeometry x="1139.12" y="339.5" width="15.88" height="18" as="geometry" />
        </mxCell>
        <mxCell id="4O6BUCsburUfHNw8age4-96" value="" style="rounded=0;whiteSpace=wrap;html=1;" parent="1" vertex="1">
          <mxGeometry x="40" y="440" width="230" height="330" as="geometry" />
        </mxCell>
        <mxCell id="4O6BUCsburUfHNw8age4-97" value="" style="rounded=1;whiteSpace=wrap;html=1;" parent="1" vertex="1">
          <mxGeometry x="60" y="460" width="170" height="30" as="geometry" />
        </mxCell>
        <mxCell id="4O6BUCsburUfHNw8age4-98" value="Поиск" style="text;html=1;align=center;verticalAlign=middle;whiteSpace=wrap;rounded=0;" parent="1" vertex="1">
          <mxGeometry x="111.17" y="460" width="60" height="30" as="geometry" />
        </mxCell>
        <mxCell id="4O6BUCsburUfHNw8age4-99" value="" style="rounded=1;whiteSpace=wrap;html=1;" parent="1" vertex="1">
          <mxGeometry x="50" y="505" width="95" height="80" as="geometry" />
        </mxCell>
        <mxCell id="4O6BUCsburUfHNw8age4-101" value="" style="rounded=1;whiteSpace=wrap;html=1;" parent="1" vertex="1">
          <mxGeometry x="160" y="505" width="95" height="80" as="geometry" />
        </mxCell>
        <mxCell id="4O6BUCsburUfHNw8age4-102" value="" style="rounded=1;whiteSpace=wrap;html=1;" parent="1" vertex="1">
          <mxGeometry x="50" y="620" width="95" height="80" as="geometry" />
        </mxCell>
        <mxCell id="4O6BUCsburUfHNw8age4-103" value="" style="rounded=1;whiteSpace=wrap;html=1;" parent="1" vertex="1">
          <mxGeometry x="160" y="620" width="95" height="80" as="geometry" />
        </mxCell>
        <mxCell id="4O6BUCsburUfHNw8age4-104" value="Товар 1" style="rounded=0;whiteSpace=wrap;html=1;" parent="1" vertex="1">
          <mxGeometry x="50" y="585" width="95" height="20" as="geometry" />
        </mxCell>
        <mxCell id="4O6BUCsburUfHNw8age4-105" value="Товар 2" style="rounded=0;whiteSpace=wrap;html=1;" parent="1" vertex="1">
          <mxGeometry x="157.94" y="585" width="95" height="20" as="geometry" />
        </mxCell>
        <mxCell id="4O6BUCsburUfHNw8age4-106" value="Товар 3" style="rounded=0;whiteSpace=wrap;html=1;" parent="1" vertex="1">
          <mxGeometry x="50" y="700" width="95" height="20" as="geometry" />
        </mxCell>
        <mxCell id="4O6BUCsburUfHNw8age4-109" value="Товар 4" style="rounded=0;whiteSpace=wrap;html=1;" parent="1" vertex="1">
          <mxGeometry x="162.5" y="700" width="95" height="20" as="geometry" />
        </mxCell>
        <mxCell id="4O6BUCsburUfHNw8age4-110" value="" style="sketch=0;pointerEvents=1;shadow=0;dashed=0;html=1;strokeColor=none;fillColor=#505050;labelPosition=center;verticalLabelPosition=bottom;verticalAlign=top;outlineConnect=0;align=center;shape=mxgraph.office.devices.hard_disk;" parent="1" vertex="1">
          <mxGeometry x="75" y="518" width="40" height="54" as="geometry" />
        </mxCell>
        <mxCell id="4O6BUCsburUfHNw8age4-111" value="" style="shadow=0;dashed=0;html=1;labelPosition=center;verticalLabelPosition=bottom;verticalAlign=top;align=center;outlineConnect=0;shape=mxgraph.veeam.3d.hard_drive;fillColor=#637D8A;gradientColor=#324752;strokeColor=none;" parent="1" vertex="1">
          <mxGeometry x="179" y="531" width="62" height="28" as="geometry" />
        </mxCell>
        <mxCell id="4O6BUCsburUfHNw8age4-112" value="" style="verticalLabelPosition=bottom;html=1;verticalAlign=top;align=center;strokeColor=none;fillColor=#00BEF2;shape=mxgraph.azure.vhd;pointerEvents=1;" parent="1" vertex="1">
          <mxGeometry x="75" y="635" width="40" height="50" as="geometry" />
        </mxCell>
        <mxCell id="4O6BUCsburUfHNw8age4-113" value="" style="shadow=0;dashed=0;html=1;strokeColor=none;fillColor=#4495D1;labelPosition=center;verticalLabelPosition=bottom;verticalAlign=top;align=center;outlineConnect=0;shape=mxgraph.veeam.2d.hard_drive;" parent="1" vertex="1">
          <mxGeometry x="190" y="636" width="40" height="48" as="geometry" />
        </mxCell>
        <mxCell id="4O6BUCsburUfHNw8age4-114" value="" style="rounded=1;whiteSpace=wrap;html=1;" parent="1" vertex="1">
          <mxGeometry x="40" y="742.5" width="230" height="27.5" as="geometry" />
        </mxCell>
        <mxCell id="4O6BUCsburUfHNw8age4-115" value="" style="verticalLabelPosition=bottom;verticalAlign=top;html=1;shadow=0;dashed=0;strokeWidth=1;shape=mxgraph.ios.iSortFindIcon;fillColor=#8BbEff;fillColor2=#135Ec8;strokeColor=#ffffff;sketch=0;" parent="1" vertex="1">
          <mxGeometry x="50" y="748.75" width="15" height="15" as="geometry" />
        </mxCell>
        <mxCell id="4O6BUCsburUfHNw8age4-220" style="edgeStyle=orthogonalEdgeStyle;rounded=0;orthogonalLoop=1;jettySize=auto;html=1;" parent="1" source="4O6BUCsburUfHNw8age4-116" target="4O6BUCsburUfHNw8age4-126" edge="1">
          <mxGeometry relative="1" as="geometry">
            <mxPoint x="320" y="758.75" as="targetPoint" />
            <Array as="points">
              <mxPoint x="114" y="780" />
              <mxPoint x="290" y="780" />
              <mxPoint x="290" y="604" />
            </Array>
          </mxGeometry>
        </mxCell>
        <mxCell id="4O6BUCsburUfHNw8age4-116" value="" style="image;aspect=fixed;html=1;points=[];align=center;fontSize=12;image=img/lib/azure2/general/Heart.svg;" parent="1" vertex="1">
          <mxGeometry x="103.67" y="748.75" width="21.33" height="20" as="geometry" />
        </mxCell>
        <mxCell id="4O6BUCsburUfHNw8age4-117" value="" style="shape=message;html=1;html=1;outlineConnect=0;labelPosition=center;verticalLabelPosition=bottom;align=center;verticalAlign=top;" parent="1" vertex="1">
          <mxGeometry x="162.5" y="747.25" width="30" height="18" as="geometry" />
        </mxCell>
        <mxCell id="4O6BUCsburUfHNw8age4-118" value="" style="image;aspect=fixed;html=1;points=[];align=center;fontSize=12;image=img/lib/azure2/identity/PIM.svg;" parent="1" vertex="1">
          <mxGeometry x="244.12" y="746.25" width="15.88" height="18" as="geometry" />
        </mxCell>
        <mxCell id="4O6BUCsburUfHNw8age4-119" value="" style="verticalLabelPosition=bottom;verticalAlign=top;html=1;shape=mxgraph.basic.heart" parent="1" vertex="1">
          <mxGeometry x="125" y="700" width="20" height="20" as="geometry" />
        </mxCell>
        <mxCell id="4O6BUCsburUfHNw8age4-120" value="" style="verticalLabelPosition=bottom;verticalAlign=top;html=1;shape=mxgraph.basic.heart" parent="1" vertex="1">
          <mxGeometry x="235" y="700" width="20" height="20" as="geometry" />
        </mxCell>
        <mxCell id="4O6BUCsburUfHNw8age4-122" value="" style="verticalLabelPosition=bottom;verticalAlign=top;html=1;shape=mxgraph.basic.heart" parent="1" vertex="1">
          <mxGeometry x="120" y="585" width="20" height="20" as="geometry" />
        </mxCell>
        <mxCell id="4O6BUCsburUfHNw8age4-123" value="Если выбираешь несколько товаров" style="text;html=1;align=center;verticalAlign=middle;whiteSpace=wrap;rounded=0;" parent="1" vertex="1">
          <mxGeometry x="40" width="230" height="30" as="geometry" />
        </mxCell>
        <mxCell id="4O6BUCsburUfHNw8age4-124" value="Если выбираешь один товар" style="text;html=1;align=center;verticalAlign=middle;whiteSpace=wrap;rounded=0;" parent="1" vertex="1">
          <mxGeometry x="40" y="410" width="230" height="30" as="geometry" />
        </mxCell>
        <mxCell id="4O6BUCsburUfHNw8age4-126" value="" style="rounded=0;whiteSpace=wrap;html=1;" parent="1" vertex="1">
          <mxGeometry x="322.5" y="438.75" width="230" height="330" as="geometry" />
        </mxCell>
        <mxCell id="4O6BUCsburUfHNw8age4-128" value="Избранное" style="rounded=1;whiteSpace=wrap;html=1;" parent="1" vertex="1">
          <mxGeometry x="335" y="455" width="120" height="40" as="geometry" />
        </mxCell>
        <mxCell id="4O6BUCsburUfHNw8age4-129" value="&lt;font style=&quot;font-size: 18px;&quot;&gt;&lt;b&gt;Объяавления&lt;/b&gt;&lt;/font&gt;" style="rounded=0;whiteSpace=wrap;html=1;" parent="1" vertex="1">
          <mxGeometry x="330" y="506" width="120" height="28.5" as="geometry" />
        </mxCell>
        <mxCell id="4O6BUCsburUfHNw8age4-130" value="&lt;font style=&quot;font-size: 12px;&quot;&gt;Подборки&lt;/font&gt;" style="rounded=0;whiteSpace=wrap;html=1;" parent="1" vertex="1">
          <mxGeometry x="460" y="506" width="90" height="25" as="geometry" />
        </mxCell>
        <mxCell id="4O6BUCsburUfHNw8age4-131" value="" style="rounded=1;whiteSpace=wrap;html=1;" parent="1" vertex="1">
          <mxGeometry x="330" y="550" width="95" height="80" as="geometry" />
        </mxCell>
        <mxCell id="4O6BUCsburUfHNw8age4-132" value="Товар 2" style="rounded=0;whiteSpace=wrap;html=1;" parent="1" vertex="1">
          <mxGeometry x="330" y="630" width="95" height="20" as="geometry" />
        </mxCell>
        <mxCell id="4O6BUCsburUfHNw8age4-134" value="" style="shadow=0;dashed=0;html=1;labelPosition=center;verticalLabelPosition=bottom;verticalAlign=top;align=center;outlineConnect=0;shape=mxgraph.veeam.3d.hard_drive;fillColor=#637D8A;gradientColor=#324752;strokeColor=none;" parent="1" vertex="1">
          <mxGeometry x="346.5" y="577" width="62" height="28" as="geometry" />
        </mxCell>
        <mxCell id="4O6BUCsburUfHNw8age4-136" value="" style="rounded=1;whiteSpace=wrap;html=1;" parent="1" vertex="1">
          <mxGeometry x="322.5" y="741.5" width="230" height="27.5" as="geometry" />
        </mxCell>
        <mxCell id="4O6BUCsburUfHNw8age4-195" style="edgeStyle=orthogonalEdgeStyle;rounded=0;orthogonalLoop=1;jettySize=auto;html=1;entryX=0.75;entryY=1;entryDx=0;entryDy=0;" parent="1" source="4O6BUCsburUfHNw8age4-137" target="4O6BUCsburUfHNw8age4-182" edge="1">
          <mxGeometry relative="1" as="geometry">
            <Array as="points">
              <mxPoint x="348" y="790" />
              <mxPoint x="-57" y="790" />
            </Array>
          </mxGeometry>
        </mxCell>
        <mxCell id="4O6BUCsburUfHNw8age4-137" value="" style="verticalLabelPosition=bottom;verticalAlign=top;html=1;shadow=0;dashed=0;strokeWidth=1;shape=mxgraph.ios.iSortFindIcon;fillColor=#8BbEff;fillColor2=#135Ec8;strokeColor=#ffffff;sketch=0;" parent="1" vertex="1">
          <mxGeometry x="340" y="746.25" width="15" height="15" as="geometry" />
        </mxCell>
        <mxCell id="4O6BUCsburUfHNw8age4-138" value="" style="image;aspect=fixed;html=1;points=[];align=center;fontSize=12;image=img/lib/azure2/general/Heart.svg;" parent="1" vertex="1">
          <mxGeometry x="387.17" y="743.75" width="21.33" height="20" as="geometry" />
        </mxCell>
        <mxCell id="4O6BUCsburUfHNw8age4-139" value="" style="shape=message;html=1;html=1;outlineConnect=0;labelPosition=center;verticalLabelPosition=bottom;align=center;verticalAlign=top;" parent="1" vertex="1">
          <mxGeometry x="455" y="747.25" width="30" height="18" as="geometry" />
        </mxCell>
        <mxCell id="4O6BUCsburUfHNw8age4-140" value="" style="image;aspect=fixed;html=1;points=[];align=center;fontSize=12;image=img/lib/azure2/identity/PIM.svg;" parent="1" vertex="1">
          <mxGeometry x="524.12" y="748.75" width="15.88" height="18" as="geometry" />
        </mxCell>
        <mxCell id="4O6BUCsburUfHNw8age4-153" value="" style="image;aspect=fixed;html=1;points=[];align=center;fontSize=12;image=img/lib/azure2/general/Heart.svg;" parent="1" vertex="1">
          <mxGeometry x="231.61" y="590" width="16" height="15" as="geometry" />
        </mxCell>
        <mxCell id="4O6BUCsburUfHNw8age4-154" value="" style="image;aspect=fixed;html=1;points=[];align=center;fontSize=12;image=img/lib/azure2/general/Heart.svg;" parent="1" vertex="1">
          <mxGeometry x="406" y="632.5" width="16" height="15" as="geometry" />
        </mxCell>
        <mxCell id="4O6BUCsburUfHNw8age4-155" value="" style="image;aspect=fixed;html=1;points=[];align=center;fontSize=12;image=img/lib/azure2/general/Heart.svg;" parent="1" vertex="1">
          <mxGeometry x="237.06" y="185" width="16" height="15" as="geometry" />
        </mxCell>
        <mxCell id="4O6BUCsburUfHNw8age4-156" value="" style="image;aspect=fixed;html=1;points=[];align=center;fontSize=12;image=img/lib/azure2/general/Heart.svg;" parent="1" vertex="1">
          <mxGeometry x="129" y="185" width="16" height="15" as="geometry" />
        </mxCell>
        <mxCell id="4O6BUCsburUfHNw8age4-157" value="" style="image;aspect=fixed;html=1;points=[];align=center;fontSize=12;image=img/lib/azure2/general/Heart.svg;" parent="1" vertex="1">
          <mxGeometry x="417" y="180" width="16" height="15" as="geometry" />
        </mxCell>
        <mxCell id="4O6BUCsburUfHNw8age4-158" value="" style="image;aspect=fixed;html=1;points=[];align=center;fontSize=12;image=img/lib/azure2/general/Heart.svg;" parent="1" vertex="1">
          <mxGeometry x="524.12" y="180" width="16" height="15" as="geometry" />
        </mxCell>
        <mxCell id="4O6BUCsburUfHNw8age4-160" value="" style="rounded=0;whiteSpace=wrap;html=1;" parent="1" vertex="1">
          <mxGeometry x="-230" y="250" width="230" height="330" as="geometry" />
        </mxCell>
        <mxCell id="4O6BUCsburUfHNw8age4-161" value="" style="rounded=1;whiteSpace=wrap;html=1;" parent="1" vertex="1">
          <mxGeometry x="-210" y="271.25" width="170" height="30" as="geometry" />
        </mxCell>
        <mxCell id="4O6BUCsburUfHNw8age4-162" value="Поиск" style="text;html=1;align=center;verticalAlign=middle;whiteSpace=wrap;rounded=0;" parent="1" vertex="1">
          <mxGeometry x="-160" y="272.5" width="60" height="30" as="geometry" />
        </mxCell>
        <mxCell id="4O6BUCsburUfHNw8age4-163" value="" style="rounded=1;whiteSpace=wrap;html=1;" parent="1" vertex="1">
          <mxGeometry x="-210" y="320" width="95" height="80" as="geometry" />
        </mxCell>
        <mxCell id="4O6BUCsburUfHNw8age4-164" value="" style="rounded=1;whiteSpace=wrap;html=1;" parent="1" vertex="1">
          <mxGeometry x="-110" y="320" width="95" height="80" as="geometry" />
        </mxCell>
        <mxCell id="4O6BUCsburUfHNw8age4-166" value="" style="rounded=1;whiteSpace=wrap;html=1;" parent="1" vertex="1">
          <mxGeometry x="-210" y="440" width="95" height="80" as="geometry" />
        </mxCell>
        <mxCell id="4O6BUCsburUfHNw8age4-167" value="" style="rounded=1;whiteSpace=wrap;html=1;" parent="1" vertex="1">
          <mxGeometry x="-110" y="438.75" width="95" height="80" as="geometry" />
        </mxCell>
        <mxCell id="4O6BUCsburUfHNw8age4-168" value="Товар 1" style="rounded=0;whiteSpace=wrap;html=1;" parent="1" vertex="1">
          <mxGeometry x="-210" y="400" width="95" height="20" as="geometry" />
        </mxCell>
        <mxCell id="4O6BUCsburUfHNw8age4-169" value="Товар 2" style="rounded=0;whiteSpace=wrap;html=1;" parent="1" vertex="1">
          <mxGeometry x="-110" y="400" width="95" height="20" as="geometry" />
        </mxCell>
        <mxCell id="4O6BUCsburUfHNw8age4-170" value="Товар 3" style="rounded=0;whiteSpace=wrap;html=1;" parent="1" vertex="1">
          <mxGeometry x="-210" y="520" width="95" height="20" as="geometry" />
        </mxCell>
        <mxCell id="4O6BUCsburUfHNw8age4-171" value="Товар 4" style="rounded=0;whiteSpace=wrap;html=1;" parent="1" vertex="1">
          <mxGeometry x="-110" y="520" width="95" height="20" as="geometry" />
        </mxCell>
        <mxCell id="4O6BUCsburUfHNw8age4-173" value="" style="verticalLabelPosition=bottom;verticalAlign=top;html=1;shape=mxgraph.basic.heart" parent="1" vertex="1">
          <mxGeometry x="-135" y="400" width="20" height="20" as="geometry" />
        </mxCell>
        <mxCell id="4O6BUCsburUfHNw8age4-192" style="edgeStyle=orthogonalEdgeStyle;rounded=0;orthogonalLoop=1;jettySize=auto;html=1;entryX=0;entryY=0.25;entryDx=0;entryDy=0;" parent="1" source="4O6BUCsburUfHNw8age4-174" target="4O6BUCsburUfHNw8age4-1" edge="1">
          <mxGeometry relative="1" as="geometry">
            <Array as="points">
              <mxPoint x="-25" y="113" />
            </Array>
          </mxGeometry>
        </mxCell>
        <mxCell id="4O6BUCsburUfHNw8age4-193" style="edgeStyle=orthogonalEdgeStyle;rounded=0;orthogonalLoop=1;jettySize=auto;html=1;entryX=0;entryY=0.75;entryDx=0;entryDy=0;" parent="1" source="4O6BUCsburUfHNw8age4-174" target="4O6BUCsburUfHNw8age4-96" edge="1">
          <mxGeometry relative="1" as="geometry" />
        </mxCell>
        <mxCell id="4O6BUCsburUfHNw8age4-174" value="" style="verticalLabelPosition=bottom;verticalAlign=top;html=1;shape=mxgraph.basic.heart" parent="1" vertex="1">
          <mxGeometry x="-35" y="400" width="20" height="20" as="geometry" />
        </mxCell>
        <mxCell id="4O6BUCsburUfHNw8age4-175" value="" style="verticalLabelPosition=bottom;verticalAlign=top;html=1;shape=mxgraph.basic.heart" parent="1" vertex="1">
          <mxGeometry x="-135" y="520" width="20" height="20" as="geometry" />
        </mxCell>
        <mxCell id="4O6BUCsburUfHNw8age4-176" value="" style="verticalLabelPosition=bottom;verticalAlign=top;html=1;shape=mxgraph.basic.heart" parent="1" vertex="1">
          <mxGeometry x="-35" y="520" width="20" height="20" as="geometry" />
        </mxCell>
        <mxCell id="4O6BUCsburUfHNw8age4-177" value="" style="sketch=0;pointerEvents=1;shadow=0;dashed=0;html=1;strokeColor=none;fillColor=#505050;labelPosition=center;verticalLabelPosition=bottom;verticalAlign=top;outlineConnect=0;align=center;shape=mxgraph.office.devices.hard_disk;" parent="1" vertex="1">
          <mxGeometry x="-180" y="330" width="40" height="54" as="geometry" />
        </mxCell>
        <mxCell id="4O6BUCsburUfHNw8age4-178" value="" style="shadow=0;dashed=0;html=1;labelPosition=center;verticalLabelPosition=bottom;verticalAlign=top;align=center;outlineConnect=0;shape=mxgraph.veeam.3d.hard_drive;fillColor=#637D8A;gradientColor=#324752;strokeColor=none;" parent="1" vertex="1">
          <mxGeometry x="-93.5" y="346" width="62" height="28" as="geometry" />
        </mxCell>
        <mxCell id="4O6BUCsburUfHNw8age4-179" value="" style="verticalLabelPosition=bottom;html=1;verticalAlign=top;align=center;strokeColor=none;fillColor=#00BEF2;shape=mxgraph.azure.vhd;pointerEvents=1;" parent="1" vertex="1">
          <mxGeometry x="-180" y="453.75" width="40" height="50" as="geometry" />
        </mxCell>
        <mxCell id="4O6BUCsburUfHNw8age4-180" value="" style="shadow=0;dashed=0;html=1;strokeColor=none;fillColor=#4495D1;labelPosition=center;verticalLabelPosition=bottom;verticalAlign=top;align=center;outlineConnect=0;shape=mxgraph.veeam.2d.hard_drive;" parent="1" vertex="1">
          <mxGeometry x="-80" y="455" width="40" height="48" as="geometry" />
        </mxCell>
        <mxCell id="4O6BUCsburUfHNw8age4-182" value="" style="rounded=1;whiteSpace=wrap;html=1;" parent="1" vertex="1">
          <mxGeometry x="-230" y="552.5" width="230" height="27.5" as="geometry" />
        </mxCell>
        <mxCell id="4O6BUCsburUfHNw8age4-183" value="" style="verticalLabelPosition=bottom;verticalAlign=top;html=1;shadow=0;dashed=0;strokeWidth=1;shape=mxgraph.ios.iSortFindIcon;fillColor=#8BbEff;fillColor2=#135Ec8;strokeColor=#ffffff;sketch=0;" parent="1" vertex="1">
          <mxGeometry x="-210" y="558.75" width="15" height="15" as="geometry" />
        </mxCell>
        <mxCell id="4O6BUCsburUfHNw8age4-184" value="" style="image;aspect=fixed;html=1;points=[];align=center;fontSize=12;image=img/lib/azure2/general/Heart.svg;" parent="1" vertex="1">
          <mxGeometry x="-160" y="556.25" width="21.33" height="20" as="geometry" />
        </mxCell>
        <mxCell id="4O6BUCsburUfHNw8age4-185" value="" style="shape=message;html=1;html=1;outlineConnect=0;labelPosition=center;verticalLabelPosition=bottom;align=center;verticalAlign=top;" parent="1" vertex="1">
          <mxGeometry x="-100" y="559" width="30" height="18" as="geometry" />
        </mxCell>
        <mxCell id="4O6BUCsburUfHNw8age4-186" value="" style="image;aspect=fixed;html=1;points=[];align=center;fontSize=12;image=img/lib/azure2/identity/PIM.svg;" parent="1" vertex="1">
          <mxGeometry x="-30" y="557.25" width="15.88" height="18" as="geometry" />
        </mxCell>
        <mxCell id="4O6BUCsburUfHNw8age4-191" style="edgeStyle=orthogonalEdgeStyle;rounded=0;orthogonalLoop=1;jettySize=auto;html=1;entryX=-0.004;entryY=0.1;entryDx=0;entryDy=0;entryPerimeter=0;" parent="1" source="4O6BUCsburUfHNw8age4-173" target="4O6BUCsburUfHNw8age4-1" edge="1">
          <mxGeometry relative="1" as="geometry">
            <Array as="points">
              <mxPoint x="-120" y="63" />
            </Array>
          </mxGeometry>
        </mxCell>
        <mxCell id="4O6BUCsburUfHNw8age4-194" style="edgeStyle=orthogonalEdgeStyle;rounded=0;orthogonalLoop=1;jettySize=auto;html=1;entryX=0.104;entryY=0.964;entryDx=0;entryDy=0;entryPerimeter=0;exitX=0.6;exitY=0.533;exitDx=0;exitDy=0;exitPerimeter=0;" parent="1" source="4O6BUCsburUfHNw8age4-208" target="4O6BUCsburUfHNw8age4-182" edge="1">
          <mxGeometry relative="1" as="geometry">
            <Array as="points">
              <mxPoint x="1261" y="349" />
              <mxPoint x="1261" y="800" />
              <mxPoint x="-206" y="800" />
            </Array>
          </mxGeometry>
        </mxCell>
        <mxCell id="4O6BUCsburUfHNw8age4-196" value="" style="rounded=0;whiteSpace=wrap;html=1;" parent="1" vertex="1">
          <mxGeometry x="1241" y="31.25" width="230" height="330" as="geometry" />
        </mxCell>
        <mxCell id="4O6BUCsburUfHNw8age4-197" value="Избранное" style="rounded=1;whiteSpace=wrap;html=1;" parent="1" vertex="1">
          <mxGeometry x="1250" y="40" width="120" height="40" as="geometry" />
        </mxCell>
        <mxCell id="4O6BUCsburUfHNw8age4-198" value="Объяавления" style="rounded=0;whiteSpace=wrap;html=1;" parent="1" vertex="1">
          <mxGeometry x="1250" y="95" width="90" height="25" as="geometry" />
        </mxCell>
        <mxCell id="4O6BUCsburUfHNw8age4-199" value="&lt;b&gt;&lt;font style=&quot;font-size: 17px;&quot;&gt;Подборки&lt;/font&gt;&lt;/b&gt;" style="rounded=0;whiteSpace=wrap;html=1;" parent="1" vertex="1">
          <mxGeometry x="1360" y="95" width="90" height="25" as="geometry" />
        </mxCell>
        <mxCell id="4O6BUCsburUfHNw8age4-200" value="" style="rounded=1;whiteSpace=wrap;html=1;" parent="1" vertex="1">
          <mxGeometry x="1250" y="190" width="95" height="80" as="geometry" />
        </mxCell>
        <mxCell id="4O6BUCsburUfHNw8age4-201" value="" style="rounded=1;whiteSpace=wrap;html=1;" parent="1" vertex="1">
          <mxGeometry x="1355" y="190" width="95" height="80" as="geometry" />
        </mxCell>
        <mxCell id="4O6BUCsburUfHNw8age4-202" value="Товар 1" style="rounded=0;whiteSpace=wrap;html=1;" parent="1" vertex="1">
          <mxGeometry x="1250" y="271.25" width="95" height="20" as="geometry" />
        </mxCell>
        <mxCell id="4O6BUCsburUfHNw8age4-203" value="Товар 2" style="rounded=0;whiteSpace=wrap;html=1;" parent="1" vertex="1">
          <mxGeometry x="1357.5" y="271.25" width="95" height="20" as="geometry" />
        </mxCell>
        <mxCell id="4O6BUCsburUfHNw8age4-204" value="" style="sketch=0;pointerEvents=1;shadow=0;dashed=0;html=1;strokeColor=none;fillColor=#505050;labelPosition=center;verticalLabelPosition=bottom;verticalAlign=top;outlineConnect=0;align=center;shape=mxgraph.office.devices.hard_disk;" parent="1" vertex="1">
          <mxGeometry x="1277.5" y="200.5" width="40" height="54" as="geometry" />
        </mxCell>
        <mxCell id="4O6BUCsburUfHNw8age4-206" value="" style="shadow=0;dashed=0;html=1;labelPosition=center;verticalLabelPosition=bottom;verticalAlign=top;align=center;outlineConnect=0;shape=mxgraph.veeam.3d.hard_drive;fillColor=#637D8A;gradientColor=#324752;strokeColor=none;" parent="1" vertex="1">
          <mxGeometry x="1370" y="217.5" width="62" height="28" as="geometry" />
        </mxCell>
        <mxCell id="4O6BUCsburUfHNw8age4-207" value="" style="rounded=1;whiteSpace=wrap;html=1;" parent="1" vertex="1">
          <mxGeometry x="1241" y="333.75" width="230" height="27.5" as="geometry" />
        </mxCell>
        <mxCell id="4O6BUCsburUfHNw8age4-208" value="" style="verticalLabelPosition=bottom;verticalAlign=top;html=1;shadow=0;dashed=0;strokeWidth=1;shape=mxgraph.ios.iSortFindIcon;fillColor=#8BbEff;fillColor2=#135Ec8;strokeColor=#ffffff;sketch=0;" parent="1" vertex="1">
          <mxGeometry x="1250" y="341" width="15" height="15" as="geometry" />
        </mxCell>
        <mxCell id="4O6BUCsburUfHNw8age4-209" value="" style="image;aspect=fixed;html=1;points=[];align=center;fontSize=12;image=img/lib/azure2/general/Heart.svg;" parent="1" vertex="1">
          <mxGeometry x="1299.3400000000001" y="339.5" width="21.33" height="20" as="geometry" />
        </mxCell>
        <mxCell id="4O6BUCsburUfHNw8age4-210" value="" style="shape=message;html=1;html=1;outlineConnect=0;labelPosition=center;verticalLabelPosition=bottom;align=center;verticalAlign=top;" parent="1" vertex="1">
          <mxGeometry x="1370" y="340" width="30" height="18" as="geometry" />
        </mxCell>
        <mxCell id="4O6BUCsburUfHNw8age4-211" value="" style="image;aspect=fixed;html=1;points=[];align=center;fontSize=12;image=img/lib/azure2/identity/PIM.svg;" parent="1" vertex="1">
          <mxGeometry x="1450" y="338.5" width="15.88" height="18" as="geometry" />
        </mxCell>
        <mxCell id="4O6BUCsburUfHNw8age4-212" value="&lt;b&gt;Название подборки&lt;/b&gt;" style="text;html=1;align=center;verticalAlign=middle;whiteSpace=wrap;rounded=0;" parent="1" vertex="1">
          <mxGeometry x="1235.51" y="157" width="149" height="30" as="geometry" />
        </mxCell>
        <mxCell id="4O6BUCsburUfHNw8age4-213" value="2 объявления" style="text;html=1;align=center;verticalAlign=middle;whiteSpace=wrap;rounded=0;" parent="1" vertex="1">
          <mxGeometry x="1257.5" y="127" width="82.5" height="30" as="geometry" />
        </mxCell>
        <mxCell id="4O6BUCsburUfHNw8age4-218" style="edgeStyle=orthogonalEdgeStyle;rounded=0;orthogonalLoop=1;jettySize=auto;html=1;" parent="1" source="4O6BUCsburUfHNw8age4-214" edge="1">
          <mxGeometry relative="1" as="geometry">
            <mxPoint x="1240" y="187.5" as="targetPoint" />
          </mxGeometry>
        </mxCell>
        <mxCell id="4O6BUCsburUfHNw8age4-214" value="&lt;b&gt;Название подборки&lt;/b&gt;" style="rounded=1;whiteSpace=wrap;html=1;" parent="1" vertex="1">
          <mxGeometry x="952.5" y="172.75" width="185" height="29.5" as="geometry" />
        </mxCell>
        <mxCell id="4O6BUCsburUfHNw8age4-216" value="2 объявления" style="text;html=1;align=center;verticalAlign=middle;whiteSpace=wrap;rounded=0;" parent="1" vertex="1">
          <mxGeometry x="957.5" y="140" width="180" height="30" as="geometry" />
        </mxCell>
        <mxCell id="442TzyQpCok9LWavsKUv-2" value="" style="rounded=1;whiteSpace=wrap;html=1;" vertex="1" parent="1">
          <mxGeometry x="600" y="333.75" width="240" height="27.5" as="geometry" />
        </mxCell>
        <mxCell id="442TzyQpCok9LWavsKUv-3" value="" style="verticalLabelPosition=bottom;verticalAlign=top;html=1;shadow=0;dashed=0;strokeWidth=1;shape=mxgraph.ios.iSortFindIcon;fillColor=#8BbEff;fillColor2=#135Ec8;strokeColor=#ffffff;sketch=0;" vertex="1" parent="1">
          <mxGeometry x="610" y="338.75" width="15" height="15" as="geometry" />
        </mxCell>
        <mxCell id="442TzyQpCok9LWavsKUv-4" value="" style="image;aspect=fixed;html=1;points=[];align=center;fontSize=12;image=img/lib/azure2/general/Heart.svg;" vertex="1" parent="1">
          <mxGeometry x="670.0000000000001" y="336.5" width="21.33" height="20" as="geometry" />
        </mxCell>
        <mxCell id="442TzyQpCok9LWavsKUv-5" value="" style="shape=message;html=1;html=1;outlineConnect=0;labelPosition=center;verticalLabelPosition=bottom;align=center;verticalAlign=top;" vertex="1" parent="1">
          <mxGeometry x="740" y="338.75" width="30" height="18" as="geometry" />
        </mxCell>
        <mxCell id="442TzyQpCok9LWavsKUv-6" value="" style="image;aspect=fixed;html=1;points=[];align=center;fontSize=12;image=img/lib/azure2/identity/PIM.svg;" vertex="1" parent="1">
          <mxGeometry x="810" y="341" width="15.88" height="18" as="geometry" />
        </mxCell>
      </root>
    </mxGraphModel>
  </diagram>
</mxfile>
